<svg width="36" height="36" viewBox="0 0 36 36" fill="none" xmlns="http://www.w3.org/2000/svg">
<path d="M0 2C0 0.895431 0.895431 0 2 0H34C35.1046 0 36 0.895431 36 2V34C36 35.1046 35.1046 36 34 36H2C0.895431 36 0 35.1046 0 34V2Z" fill="#338FE5"/>
<circle cx="18" cy="18" r="12" stroke="white" stroke-width="2"/>
<path d="M13 17V13.4H15.7V12.8C15.7 11.8059 16.5059 11 17.5 11C18.4941 11 19.3 11.8059 19.3 12.8V13.4H22V17H23.2C24.1941 17 25 17.8059 25 18.8C25 19.7941 24.1941 20.6 23.2 20.6H22V23H13V20.6H14.2C15.1941 20.6 16 19.7941 16 18.8C16 17.8059 15.1941 17 14.2 17H13Z" stroke="white" stroke-width="2" stroke-linejoin="round"/>
</svg>
